<svg version="1.1" id="Layer_1" xmlns="http://www.w3.org/2000/svg" xmlns:xlink="http://www.w3.org/1999/xlink" x="0px" y="0px" width="16px" height="16px" viewBox="0 0 16 16" enable-background="new 0 0 16 16" xml:space="preserve">
  <g id="main">
    <g id="icon">
      <path d="M1.866,0.5471L1.676,0.6758L1.547,0.8664L1.5,1.1L1.5,13.9L1.547,14.13L1.676,14.32L1.866,14.45L2.1,14.5L9,14.5L9,14L7.3,14L7.038,13.97L6.794,13.9L6.381,13.62L6.102,13.21L6.026,12.96L6,12.7L6,10.3L6.026,10.04L6.102,9.794L6.381,9.381L6.794,9.102L7.038,9.026L7.3,9L9,9L9,7.3L9.026,7.038L9.102,6.794L9.381,6.381L9.794,6.102L10.04,6.026L10.3,6L12.7,6L12.96,6.026L13.21,6.102L13.5,6.301L13.5,4.917L13.48,4.602L13.41,4.339L13.28,4.106L13.08,3.875L10.04,0.8414L9.682,0.5988L9.431,0.5264L9.117,0.5L2.1,0.5zz" fill-rule="evenodd" fill="#FFFFFF"/>
      <path d="M1.672,0.08652L1.323,0.3227L1.087,0.6723L1,1.1L1,13.9L1.087,14.33L1.323,14.68L1.672,14.91L2.1,15L9,15L9,14L7.3,14L2.1,14L2.029,13.97L2,13.9L2,1.1L2.029,1.029L2.1,1L9,1L9,4L9.069,4.337L9.249,4.624L9.505,4.843L9.798,4.972L9.961,5L13,5L13,6.038L13.21,6.102L13.62,6.381L13.9,6.794L13.97,7.038L14,7.3L14,4.917L13.97,4.506L13.87,4.151L13.69,3.83L13.43,3.521L10.39,0.4879L10.13,0.273L9.832,0.1209L9.495,0.03008L9.117,0L2.1,0zM12.49,4L10.05,4L10,3.965L10,1.507zz" fill="#cfcfcf"/>
      <path d="M3.305,9.039L3.146,9.146L3.039,9.305L3,9.5L3.039,9.695L3.146,9.854L3.305,9.961L3.5,10L6.038,10L6.102,9.794L6.381,9.381L6.794,9.102L7.038,9.026L7.3,9L3.5,9zM3.305,11.04L3.146,11.15L3.039,11.31L3,11.5L3.039,11.69L3.146,11.85L3.305,11.96L3.5,12L6,12L6,11L3.5,11zz" fill="#cfcfcf"/>
      <path d="M2.96,8L3.754,8L3.892,7.977L4.009,7.907L4.142,7.716L4.586,6.468L6.773,6.468L7.217,7.714L7.353,7.915L7.605,8L8.4,8L6.169,2L5.191,2zM5.731,3.547L6.466,5.605L4.898,5.605L5.629,3.554L5.68,3.4zz" fill="#cfcfcf"/>
    </g>
    <g id="overlay">
      <path d="M15.7,10h-2.7V7.3c0,-0.166,-0.134,-0.3,-0.3,-0.3h-2.4c-0.166,0,-0.3,0.134,-0.3,0.3v2.7H7.3c-0.166,0,-0.3,0.134,-0.3,0.3v2.4c0,0.166,0.134,0.3,0.3,0.3h2.7v2.7c0,0.166,0.134,0.3,0.3,0.3h2.4c0.166,0,0.3,-0.134,0.3,-0.3v-2.7h2.7c0.166,0,0.3,-0.134,0.3,-0.3v-2.4C16,10.134,15.866,10,15.7,10z" fill="#4EA17E"/>
    </g>
  </g>
</svg>
