<svg version="1.1" id="Layer_1" xmlns="http://www.w3.org/2000/svg" xmlns:xlink="http://www.w3.org/1999/xlink" x="0px" y="0px" width="16px" height="16px" viewBox="0 0 16 16" enable-background="new 0 0 16 16" xml:space="preserve">
  <g id="main">
    <g id="icon">
      <path d="M1.866,0.5471L1.676,0.6758L1.547,0.8664L1.5,1.1L1.5,13.9L1.547,14.13L1.676,14.32L1.866,14.45L2.1,14.5L6.049,14.5L6.001,14.25L6.097,13.75L6.218,13.53L6.387,13.32L8.237,11.47L6.387,9.618L6.221,9.416L6.1,9.19L6.025,8.944L6,8.684L6.025,8.424L6.1,8.178L6.221,7.951L6.387,7.75L7.749,6.388L7.951,6.222L8.177,6.101L8.423,6.026L8.683,6.001L8.943,6.026L9.189,6.101L9.416,6.222L9.617,6.388L11.47,8.238L13.32,6.388L13.5,6.237L13.5,4.917L13.48,4.602L13.41,4.339L13.28,4.106L13.08,3.875L10.04,0.8414L9.682,0.5988L9.431,0.5264L9.117,0.5L2.1,0.5zz" fill-rule="evenodd" fill="#FFFFFF"/>
      <path d="M1.672,0.08652L1.323,0.3227L1.087,0.6723L1,1.1L1,13.9L1.087,14.33L1.323,14.68L1.672,14.91L2.1,15L6.235,15L6.218,14.98L6.097,14.75L6.001,14.25L6.05,14L2.1,14L2.029,13.97L2,13.9L2,1.1L2.029,1.029L2.1,1L9,1L9,4L9.069,4.337L9.249,4.624L9.505,4.843L9.798,4.972L9.961,5L13,5L13,6.705L13.32,6.388L13.52,6.222L13.75,6.101L13.99,6.026L14,6.026L14,4.917L13.97,4.506L13.87,4.151L13.69,3.83L13.43,3.521L10.39,0.4879L10.13,0.273L9.832,0.1209L9.495,0.03008L9.117,0L2.1,0zM12.49,4L10.05,4L10,3.965L10,1.507zM11.17,15L11.77,15L11.47,14.7zz" fill="#cfcfcf"/>
      <path d="M11.23,8L11.5,8L11.69,7.961L11.85,7.858L11.86,7.847L11.96,7.695L12,7.5L11.96,7.305L11.85,7.146L11.69,7.039L11.5,7L10.23,7zM3.305,9.039L3.146,9.146L3.039,9.305L3,9.5L3.039,9.695L3.146,9.854L3.305,9.961L3.5,10L6.769,10L6.387,9.618L6.221,9.416L6.1,9.19L6.042,9L3.5,9zM3.305,11.04L3.146,11.15L3.039,11.31L3,11.5L3.039,11.69L3.146,11.85L3.305,11.96L3.5,12L7.705,12L8.237,11.47L7.769,11L3.5,11zz" fill="#cfcfcf"/>
      <path d="M2.96,8L3.754,8L3.892,7.977L4.009,7.907L4.142,7.716L4.586,6.468L6.773,6.468L7.009,7.128L7.749,6.388L7.788,6.356L6.169,2L5.191,2zM5.731,3.547L6.466,5.605L4.898,5.605L5.629,3.554L5.68,3.4zz" fill="#cfcfcf"/>
    </g>
    <g id="overlay">
      <path d="M15.906,14.544l-1.362,1.362c-0.125,0.125,-0.329,0.125,-0.454,0l-2.622,-2.622l-2.557,2.557c-0.125,0.125,-0.329,0.125,-0.454,0l-1.362,-1.362c-0.125,-0.125,-0.125,-0.329,0,-0.454l2.557,-2.557L7.094,8.911c-0.125,-0.125,-0.125,-0.329,0,-0.454l1.362,-1.362c0.125,-0.125,0.329,-0.125,0.454,0l2.557,2.557l2.557,-2.557c0.125,-0.125,0.329,-0.125,0.454,0l1.362,1.362c0.125,0.125,0.125,0.329,0,0.454l-2.557,2.557l2.622,2.622C16.031,14.215,16.031,14.418,15.906,14.544z" fill-rule="evenodd" fill="#CD4C32"/>
    </g>
  </g>
</svg>
