<?xml version="1.0" encoding="UTF-8"?>
<!DOCTYPE svg PUBLIC "-//W3C//DTD SVG 1.1//EN" "http://www.w3.org/Graphics/SVG/1.1/DTD/svg11.dtd">
<svg version="1.1" id="Layer_1" xmlns="http://www.w3.org/2000/svg" xmlns:xlink="http://www.w3.org/1999/xlink" x="0px" y="0px" width="21px" height="21px" viewBox="0 0 21 21" enable-background="new 0 0 21 21" xml:space="preserve">
  <g id="icon">
    <path d="M4.5377,10.5607c0,0,5.1713,-5.2265,6.8164,-6.8716c0.7044,-0.7044,1.5006,-1.0697,2.4021,-1.1493c0.3824,-0.0224,0.7306,-0.0532,1.5167,0.1845c1.2161,0.3676,2.3001,1.6423,2.606,2.9417c0.3015,1.2803,-0.0699,2.5977,-0.9934,3.5242c-0.7061,0.7085,-7.9621,7.9807,-8.6454,8.644c-0.8213,0.8213,-2.2051,0.7309,-2.7832,0.5724c-0.747,-0.2047,-1.533,-0.8127,-1.7997,-1.7543c-0.273,-0.9644,-0.0154,-1.9798,0.6889,-2.7158c0.0487,-0.0508,7.1938,-7.2361,7.1938,-7.2361c0.4634,-0.4472,0.99,-0.6347,1.6137,-0.5749c0.437,0.042,0.6855,0.2069,0.9405,0.5323c0.2552,0.3255,0.4113,0.6104,0.3412,1.0888c-0.0737,0.5037,-0.2814,0.9053,-0.6536,1.2638c-1.678,1.616,-3.4559,3.4734,-5.5951,5.5417" fill="none" stroke="#434a54" stroke-width="1" stroke-linecap="round" stroke-miterlimit="10" stroke-linejoin="round"/>
  </g>
</svg>