<?xml version="1.0" encoding="UTF-8"?>
<!DOCTYPE svg PUBLIC "-//W3C//DTD SVG 1.1//EN" "http://www.w3.org/Graphics/SVG/1.1/DTD/svg11.dtd">
<svg version="1.1" id="Layer_1" xmlns="http://www.w3.org/2000/svg" xmlns:xlink="http://www.w3.org/1999/xlink" x="0px" y="0px" width="21px" height="21px" viewBox="0 0 21 21" enable-background="new 0 0 21 21" xml:space="preserve">
  <g id="icon">
    <path d="M5.4657,13.399L16.6723,2.2221c0.5944,-0.5944,2.7182,1.5294,2.1238,2.1238L7.5836,15.5169c-0.3076,0.3076,-3.8084,2.5578,-5.0273,3.2244c-0.1881,0.1029,-0.3659,-0.0714,-0.266,-0.2608C2.9402,17.2478,5.1578,13.7069,5.4657,13.399z" fill="none" stroke="#434a54" stroke-width="1" stroke-miterlimit="10" stroke-linejoin="round"/>
    <line x1="12.7478" y1="6.1592" x2="14.812" y2="8.2" fill="none" stroke="#434a54" stroke-width="1" stroke-linecap="round" stroke-miterlimit="10" stroke-linejoin="round"/>
    <line x1="5.7815" y1="13.1269" x2="7.9028" y2="15.2483" fill="none" stroke="#434a54" stroke-width="1" stroke-miterlimit="10" stroke-linejoin="round"/>
    <path d="M16.2549,2.6429l-2.5322,0.1754c-0.3452,0.0239,-0.6854,0.1861,-0.9435,0.4498L9.2097,6.8413c0.808,0.428,1.3441,-0.0559,1.1806,-0.9194" fill="none" stroke="#434a54" stroke-width="1" stroke-linecap="round" stroke-miterlimit="10" stroke-linejoin="round"/>
  </g>
</svg>