<svg version="1.1" id="Layer_1" xmlns="http://www.w3.org/2000/svg" xmlns:xlink="http://www.w3.org/1999/xlink" x="0px" y="0px" width="32px" height="32px" viewBox="0 0 32 32" enable-background="new 0 0 32 32" xml:space="preserve">
  <g id="main">
    <g id="icon">
      <g>
        <path d="M3.991,0.5506L3.712,0.7098L3.551,0.9891L3.5,1.4L3.5,28.6L3.551,29.01L3.712,29.29L3.991,29.45L4.4,29.5L22,29.5L22,28L18.5,28L18.2,27.97L17.92,27.88L17.66,27.74L17.44,27.56L17.26,27.34L17.12,27.08L17.03,26.8L17,26.5L17,23.5L17.03,23.2L17.12,22.92L17.26,22.66L17.44,22.44L17.66,22.26L17.92,22.12L18.2,22.03L18.5,22L22,22L22,18.5L22.03,18.2L22.12,17.92L22.26,17.66L22.44,17.44L22.66,17.26L22.92,17.12L23.2,17.03L23.5,17L26.5,17L26.5,8.8L26.47,8.489L26.39,8.226L26.27,8L26.1,7.8L19.2,0.8998L18.94,0.6896L18.71,0.5686L18.3,0.5L4.4,0.5zz" fill-rule="evenodd" fill="#FFFFFF"/>
        <path d="M4.077,0.02266L3.795,0.09004L3.554,0.2016L3.356,0.3564L3.202,0.5545L3.09,0.7949L3.023,1.077L3,1.4L3,28.6L3.023,28.92L3.09,29.21L3.202,29.45L3.356,29.64L3.554,29.8L3.795,29.91L4.077,29.98L4.4,30L22,30L22,29L4.4,29L4.185,28.99L4.064,28.94L4.012,28.82L4,28.6L4,1.4L4.012,1.185L4.064,1.064L4.185,1.012L4.4,1L18,1L18,7.7L18.03,7.962L18.1,8.205L18.38,8.619L18.79,8.898L19.04,8.974L19.3,9L26,9L26,17L26.5,17L26.8,17.03L27,17.09L27,8.8L26.97,8.409L26.87,8.056L26.7,7.738L26.45,7.446L19.55,0.5463L19.27,0.3059L18.97,0.1354L18.64,0.03359L18.3,0L4.4,0zM25.59,8L19.3,8L19.09,7.912L19,7.7L19,1.407zz" fill="#cfcfcf"/>
      </g>
      <path d="M14.31,3.039L14.15,3.146L14.04,3.305L14,3.5L14.04,3.695L14.15,3.854L14.31,3.961L14.5,4L16.5,4L16.69,3.961L16.85,3.854L16.96,3.695L17,3.5L16.96,3.305L16.85,3.146L16.69,3.039L16.5,3L14.5,3zM14.31,5.039L14.15,5.146L14.04,5.305L14,5.5L14.04,5.695L14.15,5.854L14.31,5.961L14.5,6L16.5,6L16.69,5.961L16.85,5.854L16.96,5.695L17,5.5L16.96,5.305L16.85,5.146L16.69,5.039L16.5,5L14.5,5zM14.31,7.039L14.15,7.146L14.04,7.305L14,7.5L14.04,7.695L14.15,7.854L14.31,7.961L14.5,8L16.5,8L16.69,7.961L16.85,7.854L16.96,7.695L17,7.5L16.96,7.305L16.85,7.146L16.69,7.039L16.5,7L14.5,7zM15.31,9.039L15.15,9.146L15.04,9.305L15,9.5L15.04,9.695L15.15,9.854L15.31,9.961L15.5,10L16.5,10L16.69,9.961L16.85,9.854L16.96,9.695L17,9.5L16.96,9.305L16.85,9.146L16.69,9.039L16.5,9L15.5,9zM15.31,11.04L15.15,11.15L15.04,11.31L15,11.5L15.04,11.69L15.15,11.85L15.31,11.96L15.5,12L23.5,12L23.69,11.96L23.85,11.85L23.96,11.69L24,11.5L23.96,11.31L23.85,11.15L23.69,11.04L23.5,11L15.5,11zM6.305,13.04L6.146,13.15L6.039,13.31L6,13.5L6.039,13.69L6.146,13.85L6.305,13.96L6.5,14L23.5,14L23.69,13.96L23.85,13.85L23.96,13.69L24,13.5L23.96,13.31L23.85,13.15L23.69,13.04L23.5,13L6.5,13zM6.305,15.04L6.146,15.15L6.039,15.31L6,15.5L6.039,15.69L6.146,15.85L6.305,15.96L6.5,16L23.5,16L23.69,15.96L23.85,15.85L23.96,15.69L24,15.5L23.96,15.31L23.85,15.15L23.69,15.04L23.5,15L6.5,15zM6.305,17.04L6.146,17.15L6.039,17.31L6,17.5L6.039,17.69L6.146,17.85L6.305,17.96L6.5,18L22.09,18L22.12,17.92L22.26,17.66L22.44,17.44L22.66,17.26L22.92,17.12L23.2,17.03L23.5,17L6.5,17zM6.305,19.04L6.146,19.15L6.039,19.31L6,19.5L6.039,19.69L6.146,19.85L6.305,19.96L6.5,20L22,20L22,19L6.5,19zM6.305,21.04L6.146,21.15L6.039,21.31L6,21.5L6.039,21.69L6.146,21.85L6.305,21.96L6.5,22L18.5,22L22,22L22,21L6.5,21zM6.305,23.04L6.146,23.15L6.039,23.31L6,23.5L6.039,23.69L6.146,23.85L6.305,23.96L6.5,24L17,24L17,23.5L17.03,23.2L17.09,23L6.5,23zM6.305,25.04L6.146,25.15L6.039,25.31L6,25.5L6.039,25.69L6.146,25.85L6.305,25.96L6.5,26L17,26L17,25L6.5,25zz" fill="#cfcfcf"/>
      <path d="M6.049,12.02L7.02,12.02L7.169,12L7.293,11.93L7.447,11.71L8.199,9.617L11.95,9.617L12.7,11.71L12.86,11.94L12.98,12L13.13,12.02L14.1,12.02L10.71,3L9.438,3zM10.34,5.162L11.61,8.662L8.549,8.662L9.805,5.174L9.938,4.76L10.07,4.257zz" fill="#cfcfcf"/>
    </g>
    <g id="overlay">
      <path d="M31.5,23h-4.5v-4.5c0,-0.276,-0.224,-0.5,-0.5,-0.5h-3c-0.276,0,-0.5,0.224,-0.5,0.5v4.5h-4.5c-0.276,0,-0.5,0.224,-0.5,0.5v3c0,0.276,0.224,0.5,0.5,0.5h4.5v4.5c0,0.276,0.224,0.5,0.5,0.5h3c0.276,0,0.5,-0.224,0.5,-0.5v-4.5h4.5c0.276,0,0.5,-0.224,0.5,-0.5v-3C32,23.224,31.776,23,31.5,23z" fill-rule="evenodd" fill="#4EA17E"/>
    </g>
  </g>
</svg>