<svg version="1.1" id="Layer_1" xmlns="http://www.w3.org/2000/svg" xmlns:xlink="http://www.w3.org/1999/xlink" x="0px" y="0px" width="32px" height="32px" viewBox="0 0 32 32" enable-background="new 0 0 32 32" xml:space="preserve">
  <g id="icon">
    <path d="M9,24.4V4.5H7.185C6.702,4.5,6.5,4.697,6.5,5.185v21.63c0,0.487,0.202,0.685,0.685,0.685h17.63c0.483,0,0.685,-0.197,0.685,-0.685c0,0,0,-0.299,0,-0.815H10.6C9.716,26,9,25.284,9,24.4z" fill-rule="evenodd" fill="#FFFFFF"/>
    <path d="M25.5,26.2c0,0.516,0,0.615,0,0.615c0,0.487,-0.202,0.685,-0.685,0.685H7.185c-0.483,0,-0.685,-0.197,-0.685,-0.685V5.185c0,-0.487,0.202,-0.685,0.685,-0.685c0,0,0.523,0,1.615,0" fill-rule="evenodd" fill="none" stroke="#6D6E71" stroke-width="1" stroke-linecap="round" stroke-miterlimit="10"/>
    <path d="M5,27.4V7.5H3.185C2.702,7.5,2.5,7.697,2.5,8.185v21.63c0,0.487,0.202,0.685,0.685,0.685h17.63c0.483,0,0.685,-0.197,0.685,-0.685c0,0,0,-0.299,0,-0.815H6.6C5.716,29,5,28.284,5,27.4z" fill-rule="evenodd" fill="#FFFFFF"/>
    <path d="M21.5,29.2c0,0.516,0,0.615,0,0.615c0,0.487,-0.202,0.685,-0.685,0.685H3.185c-0.483,0,-0.685,-0.197,-0.685,-0.685V8.185c0,-0.487,0.202,-0.685,0.685,-0.685c0,0,0.523,0,1.615,0" fill-rule="evenodd" fill="none" stroke="#6D6E71" stroke-width="1" stroke-linecap="round" stroke-miterlimit="10"/>
    <path d="M28.815,24.5h-17.63c-0.483,0,-0.685,-0.197,-0.685,-0.685V2.185c0,-0.487,0.202,-0.685,0.685,-0.685c0,0,11.895,0,12.076,0s0.418,0.038,0.685,0.304c0.228,0.228,4.121,4.121,5.25,5.25c0.192,0.192,0.304,0.418,0.304,0.761c0,0.238,0,16,0,16C29.5,24.303,29.298,24.5,28.815,24.5z" fill-rule="evenodd" fill="#FFFFFF" stroke="#6D6E71" stroke-width="1" stroke-miterlimit="10"/>
    <path d="M23.5,1.8v4.9c0,0.442,0.358,0.8,0.8,0.8h5.1" fill-rule="evenodd" fill="none" stroke="#6D6E71" stroke-width="1" stroke-miterlimit="10"/>
    <path d="M13.5,6.5h7M13.5,8.5h7M13.5,10.5h11M14.5,12.5h11M15.5,14.5h11M15.5,16.5h8M14.5,18.5h11M13.5,20.5h8" fill="none" stroke="#B4B4B5" stroke-width="1" stroke-linecap="round" stroke-miterlimit="10" stroke-linejoin="round"/>
  </g>
</svg>